#!OML:ASF H:\Martial Arts Walks\Project 1\Capture day 1\Session 1\male.ASF
:FULLY-SPECIFIED
:DEGREES
1689
root -4.40442 13.9817 -22.9598 -0.0358622 50.1093 -4.16646
lowerback 16.9673 -0.845751 -3.87097
upperback -2.20329 -1.52282 3.50943
thorax -11.8284 -0.296697 6.52418
lowerneck 5.4069 -13.5704 -14.307
upperneck -2.15336 -18.8425 13.028
head 1.09093 -9.56738 5.81562
rclavicle -2.17172e-014 -3.97569e-016
rhumerus 6.81214 -15.0882 -64.5347
rradius 81.9681
rwrist 21.5093
rhand -47.0749 -35.8566
rfingers 7.12502
rthumb -19.7793 -64.8702
lclavicle -2.17172e-014 -3.97569e-016
lhumerus -57.596 -37.5375 117.362
lradius 106.612
lwrist 76.4571
lhand 21.5184 40.5561
lfingers 7.12502
lthumb 45.9469 -296.327
rfemur -61.446 -33.0104 18.459
rtibia 68.6064
rfoot -3.52218 2.60215
rtoes -3.75881
lfemur -29.4471 34.4132 -4.517
ltibia 83.1614
lfoot -29.7459 21.6811
ltoes -21.0226
1690
root -4.41733 13.9784 -22.9952 -0.252585 50.1284 -4.47482
lowerback 17.0834 -0.886838 -3.64792
upperback -2.16954 -1.5289 3.53508
thorax -11.861 -0.312457 6.42979
lowerneck 5.41228 -13.5609 -14.2504
upperneck -2.3386 -18.8156 13.1369
head 1.03799 -9.55594 5.84983
rclavicle -2.27111e-014 -5.1684e-015
rhumerus 6.90096 -15.0739 -64.3262
rradius 81.7307
rwrist 21.5
rhand -47.1427 -36.1184
rfingers 7.12502
rthumb -19.8445 -65.1253
lclavicle -2.27111e-014 -5.1684e-015
lhumerus -57.5807 -37.6565 117.438
lradius 106.547
lwrist 76.4343
lhand 21.1126 40.704
lfingers 7.12502
lthumb 45.5701 -296.025
rfemur -61.3443 -32.5467 18.4313
rtibia 68.36
rfoot -3.2114 2.28848
rtoes -4.39567
lfemur -29.9294 33.6915 -4.37006
ltibia 83.8063
lfoot -29.1546 21.3723
ltoes -21.2593
1691
root -4.43003 13.9748 -23.0358 -0.469238 50.121 -4.77095
lowerback 17.2072 -0.924349 -3.4338
upperback -2.13126 -1.53218 3.557
thorax -11.8932 -0.326547 6.33587
lowerneck 5.42638 -13.5481 -14.1948
upperneck -2.52583 -18.7849 13.2507
head 0.983205 -9.54307 5.88671
rclavicle 1.46107e-014 -5.96354e-015
rhumerus 6.99589 -15.0383 -64.1011
rradius 81.4515
rwrist 21.498
rhand -47.1999 -36.4064
rfingers 7.12502
rthumb -19.8994 -65.4076
lclavicle 1.46107e-014 -5.96354e-015
lhumerus -57.5688 -37.7873 117.519
lradius 106.473
lwrist 76.3723
lhand 20.6601 40.8533
lfingers 7.12502
lthumb 45.1495 -295.706
rfemur -61.2281 -32.0393 18.375
rtibia 68.0822
rfoot -2.86225 1.955
rtoes -4.99696
lfemur -30.4188 32.8656 -4.2177
ltibia 84.4841
lfoot -28.5269 21.0161
ltoes -21.519
1692
root -4.44216 13.9709 -23.0821 -0.677693 50.0815 -5.04052
lowerback 17.3395 -0.957786 -3.23333
upperback -2.08762 -1.53335 3.57265
thorax -11.9245 -0.339133 6.24245
lowerneck 5.44816 -13.5317 -14.1403
upperneck -2.71463 -18.7498 13.3643
head 0.926274 -9.52845 5.92472
rclavicle -1.82882e-014 4.41302e-014
rhumerus 7.09773 -14.973 -63.8629
rradius 81.1312
rwrist 21.4711
rhand -47.2252 -36.6978
rfingers 7.12502
rthumb -19.9237 -65.6964
lclavicle -1.82882e-014 4.41302e-014
lhumerus -57.5573 -37.9233 117.601
lradius 106.388
lwrist 76.2685
lhand 20.1761 40.9925
lfingers 7.12502
lthumb 44.6991 -295.39
rfemur -61.0954 -31.4902 18.2798
rtibia 67.7696
rfoot -2.47344 1.6103
rtoes -5.56307
lfemur -30.9067 31.9352 -4.07483
ltibia 85.1823
lfoot -27.8792 20.6246
ltoes -21.7788
